<?xml version="1.0" encoding="UTF-8" standalone="no"?>
<svg width="140px" height="20px" viewBox="0 0 140 20" version="1.1" xmlns="http://www.w3.org/2000/svg" xmlns:xlink="http://www.w3.org/1999/xlink">
    <!-- Generator: Sketch 49 (51002) - http://www.bohemiancoding.com/sketch -->
    <title>neighbourly-logo</title>
    <desc>Created with Sketch.</desc>
    <defs></defs>
    <g id="Page-1" stroke="none" stroke-width="1" fill="none" fill-rule="evenodd">
        <g id="Artboard-Copy-7" transform="translate(-130.000000, -15.000000)" fill="#FFFFFF">
            <g id="neighbourly-logo" transform="translate(130.000000, 15.000000)">
                <g id="Group">
                    <g id="Group-2">
                        <path d="M27.4488066,10.5139441 C27.4488066,10.623903 27.4511111,10.7386355 27.456214,10.8584709 C27.4611523,10.978224 27.468642,11.0831622 27.4786831,11.1728742 C27.4884774,11.2829153 27.5035391,11.387689 27.5236214,11.4874421 L27.4637037,11.4874421 C27.4219638,11.3832786 27.3820128,11.2784073 27.3438683,11.1728742 C27.3038683,11.0830799 27.2615638,10.978224 27.2166255,10.8584709 C27.1730712,10.7420639 27.1256095,10.6271566 27.074321,10.5139441 L24.453251,4.67270957 L22.2066667,4.67270957 L22.2066667,15.1569071 L24.3035391,15.1569071 L24.3035391,9.31567254 C24.3035391,9.2059606 24.2983539,9.09361492 24.2885597,8.9787178 C24.2791349,8.87131377 24.2691484,8.76395977 24.2586008,8.65666019 C24.2489138,8.55177594 24.2389275,8.44691954 24.228642,8.34209229 L24.2885597,8.34209229 C24.3283951,8.44200998 24.3683951,8.54686595 24.4083951,8.65666019 C24.4511275,8.76389754 24.4935694,8.87125048 24.5357202,8.9787178 C24.579996,9.09234414 24.6274495,9.20470654 24.6780247,9.31567254 L27.2990947,15.1569071 L29.545679,15.1569071 L29.545679,4.67270957 L27.4488066,4.67270957 L27.4488066,10.5139441 Z M39.7195885,4.44810052 C39.42,4.44810052 39.1579424,4.5604462 38.933251,4.78513756 C38.7085597,5.00982891 38.5962963,5.27188653 38.5962963,5.5713927 C38.5962963,5.87089887 38.708642,6.1331211 38.933251,6.35773015 C39.1579424,6.58242151 39.42,6.69468488 39.7195885,6.69468488 C40.0190947,6.69468488 40.2812346,6.58242151 40.5059259,6.35773015 C40.7306173,6.13303879 40.8428807,5.87089887 40.8428807,5.5713927 C40.8428807,5.27188653 40.730535,5.00982891 40.5059259,4.78513756 C40.2812346,4.5604462 40.019177,4.44810052 39.7195885,4.44810052 Z M38.6711934,7.66818282 L40.7680658,7.66818282 L40.7680658,15.1569071 L38.6711934,15.1569071 L38.6711934,7.66818282 Z M69.7026337,7.51847089 C68.6141564,7.51847089 67.7679835,7.83822398 67.1639506,8.47698941 C66.5596708,9.11608406 66.2577778,10.0946026 66.2577778,11.412545 C66.2577778,12.7304874 66.5596708,13.7092528 67.1639506,14.3481828 C67.7679835,14.9872775 68.6141564,15.3067013 69.7026337,15.3067013 C70.7907819,15.3067013 71.637037,14.9872775 72.2413169,14.3481828 C72.8453498,13.7092528 73.1474897,12.7305697 73.1474897,11.412545 C73.1474897,10.0945203 72.8453498,9.11608406 72.2413169,8.47698941 C71.637037,7.83814167 70.7908642,7.51847089 69.7026337,7.51847089 Z M70.9457613,12.6332857 C70.8758025,12.9578948 70.78107,13.2174009 70.6612346,13.4120511 C70.5413992,13.6067836 70.3990947,13.7467836 70.2344033,13.831475 C70.0696296,13.9164133 69.8922634,13.9587178 69.702716,13.9587178 C69.5129218,13.9587178 69.3358025,13.916331 69.1710288,13.831475 C69.0062551,13.7467836 68.8639506,13.6067836 68.7441152,13.4120511 C68.6243621,13.2174009 68.5293004,12.9578948 68.4595885,12.6332857 C68.3896296,12.3089236 68.3547325,11.9019277 68.3547325,11.4126273 C68.3547325,10.9234915 68.3896296,10.5166602 68.4595885,10.1919688 C68.5293827,9.867689 68.6243621,9.60785361 68.7441152,9.4132034 C68.8639506,9.21847089 69.0062551,9.07880011 69.1710288,8.99377953 C69.3358025,8.90908817 69.5129218,8.86653673 69.702716,8.86653673 C69.8922634,8.86653673 70.0696296,8.90908817 70.2344033,8.99377953 C70.3990947,9.07880011 70.5413992,9.21847089 70.6612346,9.4132034 C70.78107,9.60785361 70.8758848,9.867689 70.9457613,10.1919688 C71.0155556,10.5166602 71.0506173,10.9234915 71.0506173,11.4126273 C71.0506173,11.9019277 71.0155556,12.3089236 70.9457613,12.6332857 Z M96.5506996,7.66818282 L95.2776132,12.5358371 C95.2562704,12.6223991 95.2387772,12.709865 95.2251852,12.7979771 C95.2112257,12.8851122 95.1987411,12.9724772 95.1877366,13.0600347 C95.1776955,13.1599524 95.167572,13.2598701 95.1577778,13.3596232 L95.0978601,13.3596232 C95.0877366,13.2599524 95.0776955,13.1600347 95.0679012,13.0600347 C95.0578601,12.9802816 95.0454321,12.8929565 95.0304527,12.7979771 C95.0167811,12.7098791 94.9992886,12.6224167 94.9780247,12.5358371 L93.4802469,7.66818282 L91.3833745,7.66810052 L94.2440329,15.905796 C94.0542387,16.6045614 93.7247737,16.9541911 93.2555556,16.9541911 C93.1455144,16.9541911 93.0407407,16.9366602 92.9409877,16.9017631 C92.8467212,16.8693488 92.7563239,16.8266206 92.6714403,16.7743557 C92.5808759,16.7238482 92.4997789,16.6579847 92.4317695,16.5797055 L92.2819753,16.5797055 L91.7577778,17.8527919 C91.8974486,17.9426684 92.0573663,18.0175655 92.237037,18.0774832 C92.3868313,18.1374009 92.5613992,18.1897466 92.7612346,18.2347672 C92.9609053,18.2796232 93.1754733,18.3021746 93.4052675,18.3021746 C94.1241975,18.3021746 94.7083128,18.0899112 95.1576132,17.6655491 C95.6069136,17.2410223 95.9462551,16.6546026 96.1761317,15.9057137 L98.6474074,7.66810052 L96.5506996,7.66810052 L96.5506996,7.66818282 Z M17.6039506,6.91731863 L14.0687243,4.86036389 C13.6973224,4.64423663 13.2221575,4.75020324 12.9777778,5.10365607 L8.31061728,11.8538618 C8.21603675,11.9906577 8.16513042,12.1529037 8.16460905,12.3192116 L8.14691358,17.6765779 L1.64609053,13.8560841 L1.64609053,7.84571369 L5.68041152,1.91805937 L10.9102058,4.93756554 C11.3036214,5.16480834 11.8071605,5.02999352 12.0344856,4.63633097 C12.2618107,4.24266842 12.1269136,3.73929393 11.733251,3.51205114 L5.84156379,0.110405046 C5.46835528,-0.105154508 4.99205027,0.00377060121 4.74962963,0.36011698 L0.142633745,7.12900587 C0.0497222781,7.26558538 2.61724726e-05,7.42694717 0,7.59213344 L0,14.3270306 C6.5485746e-06,14.6187909 0.1544751,14.8887429 0.40600823,15.0365779 L8.54823045,19.8216808 C8.80224807,19.9711691 9.11684536,19.9732729 9.37283951,19.8271952 C9.62885262,19.6812711 9.78731607,19.4096105 9.78831276,19.1149318 L9.80987654,12.580117 L13.8988477,6.66604291 L16.3669136,8.10217459 L16.3669136,12.9112281 L12.898107,10.9195408 C12.5038683,10.6931211 12.0009053,10.8291705 11.7745679,11.2234092 C11.5482305,11.6176478 11.6842798,12.1206108 12.0784362,12.3469483 L16.7801646,15.046619 C17.034863,15.1928865 17.3482053,15.1923424 17.6023942,15.0451911 C17.8565831,14.8980399 18.0130932,14.626584 18.0130864,14.3328742 L18.0130864,7.62875896 C18.0130353,7.3357003 17.8572204,7.06475607 17.6039506,6.91731863 Z M88.9481481,4.67270957 L88.3490535,4.67270957 L88.3490535,15.1569071 L90.4459259,15.1569071 L90.4459259,4.67270957 L89.6771193,4.67270957 L88.9481481,4.67270957 Z M64.4516872,8.48447912 C64.1720165,8.16011698 63.84,7.91789476 63.4556379,7.75814167 C63.0711934,7.59855319 62.6442798,7.51847089 62.175144,7.51847089 C61.9452675,7.51847089 61.7382716,7.54349147 61.5535802,7.59336801 C61.3687243,7.64340916 61.2114403,7.6932857 61.0818107,7.74316225 C60.9219753,7.8132034 60.7871605,7.88810052 60.6774486,7.96785361 L60.6774486,4.67270957 L58.5805761,4.67270957 L58.5805761,15.1569071 L60.6774486,15.1569071 L60.6774486,14.6615162 L60.8122634,14.7825038 C60.9819753,14.9224215 61.1916049,15.0446437 61.4413169,15.1494174 C61.6907819,15.2542734 61.9854321,15.3067013 62.3250206,15.3067013 C62.7542387,15.3067013 63.1511111,15.226619 63.5157202,15.0670306 C63.8800823,14.9074421 64.1972016,14.6652199 64.466749,14.3406931 C64.7363786,14.016331 64.9460905,13.6118865 65.0958025,13.1275244 C65.2455967,12.6433269 65.3204938,12.0716396 65.3204938,11.4126273 C65.3204938,10.7536149 65.2455967,10.1820923 65.0958025,9.69773015 C64.9459259,9.21345031 64.7311111,8.80908817 64.4516872,8.48447912 Z M63.1186008,12.5882651 C63.048642,12.902833 62.956214,13.1574832 62.8415638,13.3521334 C62.7266667,13.5469483 62.5918519,13.6842322 62.4372016,13.7640676 C62.2822222,13.8439853 62.1200823,13.8838207 61.9504527,13.8838207 C61.7407407,13.8838207 61.5584362,13.8364956 61.403786,13.7415162 C61.2488889,13.6467836 61.1166255,13.5443968 61.0069136,13.434438 C60.8870782,13.3048083 60.7771193,13.1550964 60.6774486,12.9851376 L60.6774486,9.31567254 C60.7781655,9.23518155 60.8831462,9.16017572 60.9919342,9.09098118 C61.0916049,9.04110463 61.2091358,8.9913104 61.3439506,8.94118694 C61.4787654,8.8913104 61.6308642,8.86628982 61.8007407,8.86628982 C62.0103704,8.86628982 62.1999177,8.90884126 62.3698765,8.99353262 C62.5395062,9.07855319 62.6893004,9.21822398 62.819177,9.41295649 C62.9488066,9.60760669 63.0488066,9.86744208 63.1186831,10.1917219 C63.1884774,10.5164133 63.2235391,10.9232446 63.2235391,11.4123804 C63.2235391,11.8820923 63.1883951,12.2738618 63.1186008,12.5882651 Z M54.1427984,7.51847089 C53.8830453,7.51847089 53.6508642,7.55600175 53.4463374,7.63081657 C53.2415638,7.70571369 53.0693827,7.78316225 52.9296296,7.86299764 C52.7597531,7.96291533 52.615144,8.07262727 52.4953086,8.19246266 L52.4953086,4.67270957 L50.3984362,4.67270957 L50.3984362,15.1569071 L52.4953086,15.1569071 L52.4953086,9.83995237 C52.5949794,9.67032274 52.7049383,9.5205285 52.8247737,9.39065196 C52.9344856,9.28094003 53.066749,9.1786355 53.2216461,9.08357377 C53.3762963,8.98884126 53.5586008,8.94126924 53.7683951,8.94126924 C54.1077366,8.94126924 54.3799177,9.05616636 54.5846914,9.28579599 C54.7892181,9.51550793 54.8917695,9.87493179 54.8917695,10.3641499 L54.8917695,15.1569071 L56.988642,15.1569071 L56.988642,10.3641499 C56.988642,9.45567254 56.7414815,8.75410875 56.2472428,8.25978776 C55.7528395,7.76563138 55.0512757,7.51847089 54.1427984,7.51847089 Z M86.7616461,7.54094003 C86.629871,7.52613571 86.4973776,7.51863453 86.3647737,7.51847089 C86.0251852,7.51847089 85.730535,7.57353262 85.48107,7.68324455 C85.231358,7.7932034 85.0217284,7.9131211 84.8520165,8.04266842 C84.8053498,8.08003468 84.7606584,8.11830628 84.7172016,8.15731863 L84.7172016,7.66826513 L82.6203292,7.66826513 L82.6203292,15.1569894 L84.7172016,15.1569894 L84.7172016,9.91484949 C84.8168724,9.74521986 84.9268313,9.59542562 85.0466667,9.46554908 C85.1563786,9.35583714 85.288642,9.25353262 85.4435391,9.15847089 C85.5981893,9.06373838 85.7804938,9.01616636 85.9902881,9.01616636 C86.1199177,9.01616636 86.2472428,9.02365607 86.3722634,9.0386355 C86.4969547,9.05361492 86.6093004,9.07114579 86.7092181,9.09106348 C86.81893,9.12102233 86.9287243,9.14612521 87.0386831,9.1659606 L87.1884774,9.1659606 L87.4880658,7.66818282 C87.3672615,7.64811818 87.2473263,7.62313169 87.1285597,7.5932857 C87.0068787,7.57171525 86.8845046,7.55425676 86.7616461,7.54094003 Z M78.883786,12.9852199 C78.7838683,13.1551787 78.6740741,13.3049729 78.554321,13.4345203 C78.4442798,13.5444791 78.309465,13.6467836 78.1498765,13.7415985 C77.9900412,13.8365779 77.8103704,13.883903 77.6106996,13.883903 C77.2711111,13.883903 76.9990123,13.7691705 76.7944033,13.5394585 C76.5896296,13.3098289 76.4873251,12.950405 76.4873251,12.4610223 L76.4873251,7.66818282 L74.3904527,7.66818282 L74.3904527,12.46094 C74.3904527,13.369582 74.6375309,14.0710635 75.1318519,14.5653022 C75.6260905,15.0595408 76.3274897,15.3067013 77.236214,15.3067013 C77.5755556,15.3067013 77.8702058,15.2542734 78.1198354,15.1494174 C78.3693004,15.0446437 78.5790123,14.9224215 78.7488889,14.7825038 C78.7950429,14.7459966 78.8400046,14.708007 78.8837037,14.6685943 L78.8837037,15.1569071 L80.9805761,15.1569071 L80.9805761,7.66818282 L78.8837037,7.66818282 L78.8837037,12.9852199 L78.883786,12.9852199 Z M46.6706173,7.66818282 L46.6706173,8.16200998 C46.6266415,8.12112856 46.5816903,8.08130912 46.5358025,8.04258612 C46.3659259,7.91295649 46.156214,7.7931211 45.906749,7.68316225 C45.657037,7.57345031 45.3623868,7.51838858 45.0231276,7.51838858 C44.5936626,7.51838858 44.1967901,7.59847089 43.832428,7.75805937 C43.4678189,7.91789476 43.1509465,8.16003468 42.8813169,8.48439682 C42.6116872,8.80900587 42.4020576,9.21345031 42.2522634,9.69756554 C42.1024691,10.1819277 42.027572,10.7534503 42.027572,11.4124627 C42.027572,12.071475 42.1024691,12.6431622 42.2522634,13.1273598 C42.4020576,13.6117219 42.6166255,14.0161664 42.8962963,14.3405285 C43.1757202,14.6651376 43.5078189,14.9072775 43.8922634,15.066866 C44.2765432,15.2264544 44.7033745,15.3065367 45.1728395,15.3065367 C45.4023868,15.3065367 45.6046091,15.2840676 45.7794239,15.2391293 C45.9539918,15.1941087 46.1112757,15.1417631 46.2511934,15.0818454 C46.3989858,15.0229712 46.5396575,14.9475966 46.670535,14.857154 L46.670535,15.3064544 C46.670535,15.8356725 46.5306173,16.2425038 46.2511934,16.5271129 C45.9715226,16.8116396 45.5869959,16.9539441 45.0979424,16.9539441 C44.8381893,16.9539441 44.6060082,16.923903 44.4014815,16.8640676 C44.1967078,16.8041499 44.0245267,16.7341911 43.8847737,16.654438 C43.7148971,16.5645614 43.5702881,16.4646437 43.4504527,16.3548495 L43.3006584,16.3548495 L42.6266667,17.5530388 C42.8362963,17.6927919 43.0759671,17.8174832 43.3455967,17.9274421 C43.575144,18.0271129 43.8497119,18.1146026 44.1693827,18.1894997 C44.4888066,18.2643968 44.8483128,18.3018454 45.2477366,18.3018454 C45.8068313,18.3018454 46.3060082,18.2269483 46.7455144,18.077154 C47.1847737,17.9273598 47.5542387,17.7177301 47.8538272,17.4480182 C48.1534156,17.1784709 48.3803292,16.8613515 48.5353086,16.4969894 C48.6899588,16.1323804 48.7674897,15.7354256 48.7674897,15.3062898 L48.7674897,7.66818282 L46.6706173,7.66818282 Z M46.6706173,11.2841499 L46.6706173,13.5094174 C46.5748759,13.5963174 46.4693034,13.6717264 46.3560494,13.7341087 C46.2561317,13.7940264 46.1388477,13.8464544 46.0041152,13.8913927 C45.8693004,13.9362487 45.7169547,13.9588001 45.5473251,13.9588001 C45.3376132,13.9588001 45.1478189,13.9164133 44.9781893,13.8315573 C44.8083128,13.746866 44.6585185,13.606866 44.5288889,13.4121334 C44.3990123,13.2174832 44.2990947,12.9579771 44.2293004,12.633368 C44.1593416,12.3090059 44.1244444,11.90201 44.1244444,11.4127096 C44.1244444,10.9434915 44.1592593,10.5515573 44.2293004,10.2369894 C44.2990947,9.92242151 44.3915226,9.6677713 44.5064198,9.4731211 C44.62107,9.27847089 44.7558848,9.14126924 44.9107819,9.06126924 C45.0654321,8.98143385 45.2276543,8.94135155 45.3975309,8.94135155 C45.5972016,8.94135155 45.7768724,8.98892356 45.9367078,9.08365607 C46.0962963,9.1787178 46.2311111,9.28094003 46.3411523,9.39073426 C46.4609053,9.52061081 46.5706996,9.67040505 46.6706173,9.84003468 L46.6706173,11.2841499 Z M34.1660905,7.51847089 C33.1574486,7.51847089 32.356214,7.8405285 31.7622222,8.48447912 C31.1680658,9.12859435 30.8711111,10.1046437 30.8711111,11.412545 C30.8711111,14.008759 32.119177,15.3067013 34.6154733,15.3067013 C34.9948148,15.3067013 35.3367078,15.2691705 35.6413992,15.1943557 C35.9458436,15.1195408 36.2128395,15.0322157 36.442716,14.932298 C36.7022222,14.8225861 36.941893,14.6978125 37.1616461,14.5578948 L36.4876543,13.3597055 L36.3378601,13.3597055 C36.2180247,13.4696643 36.078107,13.5693351 35.9185185,13.6592939 C35.7786008,13.7393762 35.6114403,13.8090882 35.4167901,13.8689236 C35.2221399,13.9288413 35.0049383,13.9588001 34.7652675,13.9588001 C33.5670782,13.9588001 32.9679835,13.3348495 32.9679835,12.086619 L37.4301235,12.086619 C37.4435204,11.9388977 37.4521394,11.790782 37.4559671,11.6425038 L37.4612346,11.6372363 L37.4612346,11.262833 C37.4612346,10.0248083 37.1640329,9.09114579 36.5700412,8.46209229 C35.9758025,7.83295649 35.1744856,7.51847089 34.1660905,7.51847089 Z M35.1092181,10.7385532 L32.9679012,10.7385532 C32.9679012,10.0996232 33.0926749,9.62793591 33.3423045,9.32316225 C33.5917695,9.0187178 33.8665021,8.86637212 34.1660905,8.86637212 C34.465679,8.86637212 34.7401646,9.01880011 34.9898765,9.32316225 C35.0344033,9.37756554 35.0735802,9.43929393 35.1102058,9.50439682 C35.1888889,9.6441499 35.2487243,9.80900587 35.2910288,9.99740093 C35.2949794,10.0153433 35.2993416,10.0328742 35.302963,10.0512281 C35.3095473,10.0839853 35.315144,10.1179771 35.3206584,10.1522157 C35.3302866,10.2114702 35.3381092,10.2710039 35.3441152,10.3307343 C35.3480658,10.3699112 35.3511934,10.4103227 35.3539095,10.4511458 C35.3556379,10.4762487 35.3576955,10.50094 35.35893,10.5267013 C35.3622222,10.5953433 35.3642798,10.6655491 35.3642798,10.7385532 L35.1092181,10.7385532 Z" id="Shape" fill-rule="nonzero"></path>
                        <path d="M108.568359,11.6801758 C108.458496,12.6201219 108.111616,13.3454157 107.52771,13.8560791 C106.943804,14.3667425 106.167648,14.6220703 105.199219,14.6220703 C104.149409,14.6220703 103.308149,14.2456906 102.675415,13.4929199 C102.042681,12.7401492 101.726318,11.7330792 101.726318,10.4716797 L101.726318,9.6171875 C101.726318,8.79117426 101.873819,8.06486316 102.168823,7.43823242 C102.463828,6.81160168 102.881915,6.33044601 103.423096,5.99475098 C103.964277,5.65905594 104.590898,5.49121094 105.302979,5.49121094 C106.246994,5.49121094 107.003822,5.75467673 107.573486,6.28161621 C108.143151,6.80855569 108.474772,7.53791852 108.568359,8.46972656 L107.390381,8.46972656 C107.288655,7.76171521 107.067913,7.24902502 106.728149,6.93164062 C106.388385,6.61425623 105.913333,6.45556641 105.302979,6.45556641 C104.554277,6.45556641 103.967328,6.73225635 103.542114,7.28564453 C103.116901,7.83903271 102.904297,8.62637836 102.904297,9.64770508 L102.904297,10.5083008 C102.904297,11.4726611 103.105711,12.2396619 103.508545,12.8093262 C103.911379,13.3789905 104.474931,13.6638184 105.199219,13.6638184 C105.850264,13.6638184 106.34973,13.5163182 106.697632,13.2213135 C107.045534,12.9263087 107.276448,12.4126013 107.390381,11.6801758 L108.568359,11.6801758 Z M115.074707,12.1806641 L111.351562,12.1806641 L110.515381,14.5 L109.306885,14.5 L112.700439,5.61328125 L113.72583,5.61328125 L117.125488,14.5 L115.923096,14.5 L115.074707,12.1806641 Z M111.705566,11.2163086 L114.726807,11.2163086 L113.213135,7.05981445 L111.705566,11.2163086 Z M123.674561,6.57763672 L120.818115,6.57763672 L120.818115,14.5 L119.652344,14.5 L119.652344,6.57763672 L116.802002,6.57763672 L116.802002,5.61328125 L123.674561,5.61328125 L123.674561,6.57763672 Z M131.358887,11.6801758 C131.249023,12.6201219 130.902143,13.3454157 130.318237,13.8560791 C129.734331,14.3667425 128.958175,14.6220703 127.989746,14.6220703 C126.939936,14.6220703 126.098677,14.2456906 125.465942,13.4929199 C124.833208,12.7401492 124.516846,11.7330792 124.516846,10.4716797 L124.516846,9.6171875 C124.516846,8.79117426 124.664346,8.06486316 124.959351,7.43823242 C125.254355,6.81160168 125.672442,6.33044601 126.213623,5.99475098 C126.754804,5.65905594 127.381425,5.49121094 128.093506,5.49121094 C129.037521,5.49121094 129.794349,5.75467673 130.364014,6.28161621 C130.933678,6.80855569 131.265299,7.53791852 131.358887,8.46972656 L130.180908,8.46972656 C130.079182,7.76171521 129.858441,7.24902502 129.518677,6.93164062 C129.178913,6.61425623 128.70386,6.45556641 128.093506,6.45556641 C127.344804,6.45556641 126.757855,6.73225635 126.332642,7.28564453 C125.907428,7.83903271 125.694824,8.62637836 125.694824,9.64770508 L125.694824,10.5083008 C125.694824,11.4726611 125.896238,12.2396619 126.299072,12.8093262 C126.701906,13.3789905 127.265459,13.6638184 127.989746,13.6638184 C128.640791,13.6638184 129.140257,13.5163182 129.488159,13.2213135 C129.836061,12.9263087 130.066975,12.4126013 130.180908,11.6801758 L131.358887,11.6801758 Z M139.787842,14.5 L138.609863,14.5 L138.609863,10.392334 L134.129883,10.392334 L134.129883,14.5 L132.958008,14.5 L132.958008,5.61328125 L134.129883,5.61328125 L134.129883,9.43408203 L138.609863,9.43408203 L138.609863,5.61328125 L139.787842,5.61328125 L139.787842,14.5 Z" id="CATCH"></path>
                    </g>
                </g>
            </g>
        </g>
    </g>
</svg>